<svg width="700" height="275" viewBox="0 0 700 275" fill="none" xmlns="http://www.w3.org/2000/svg">
<path d="M136.972 224.639C133.747 224.733 130.609 223.589 128.199 221.443C125.79 219.297 124.293 216.311 124.014 213.097L122.556 201.667C108.667 197.708 100.542 187.431 98.4306 171.111L85.9306 74.8056C83.2491 74.374 80.535 74.1788 77.8194 74.2222C73.8 74.1893 69.7951 74.708 65.9167 75.7639V221.819H41.3889V104.417C41.3889 88.4861 48.5417 77.2361 61.5694 72.5556V64.9861C61.5694 56.2361 66.8889 50.3611 74.7917 50.3611C82.6944 50.3611 87.6528 55.2778 88.9306 64.25L89.9028 71.2639C104.167 75.25 112.5 86.7083 114.972 105.306L126.528 198.139C133.432 199.472 140.527 199.472 147.431 198.139L158.986 105.319C161.403 86.7083 169.833 75.25 184.056 71.2222L185.028 64.2083C186.306 55.2778 191.333 50.3194 199.167 50.3194C207 50.3194 212.389 56.1944 212.389 64.9444V72.5139C225.417 77.1944 232.569 88.4444 232.569 104.375V221.778H208.014V75.75C204.135 74.6942 200.131 74.1754 196.111 74.2083C193.396 74.165 190.681 74.3602 188 74.7917L175.5 171.111C173.431 187.139 165.111 197.667 151.375 201.667L150 213.111C149.786 216.362 148.297 219.396 145.857 221.555C143.418 223.713 140.225 224.822 136.972 224.639ZM127.097 202.778L128.361 212.625C128.494 214.784 129.472 216.804 131.084 218.247C132.696 219.69 134.811 220.44 136.972 220.333C138.047 220.41 139.127 220.271 140.147 219.924C141.167 219.576 142.107 219.027 142.911 218.31C143.716 217.592 144.368 216.721 144.829 215.746C145.291 214.772 145.552 213.716 145.597 212.639L146.861 202.778C140.317 203.852 133.641 203.852 127.097 202.778V202.778ZM212.389 217.514H228.194V104.417C228.194 90.9167 222.75 81.5972 212.389 77.25V217.514ZM45.7222 217.514H61.5694V77.25C51.2222 81.5972 45.8333 90.9167 45.8333 104.417L45.7222 217.514ZM90.5278 76L102.778 170.542C104.528 184.222 110.986 193.069 121.958 196.931L110.639 105.847C108.556 89.7917 101.958 79.9861 90.5278 76ZM183.431 76C172 79.9861 165.375 89.7917 163.319 105.861L152 196.875C162.986 193.014 169.431 184.167 171.181 170.486L183.431 76ZM65.9444 71.1667C69.8404 70.2193 73.8378 69.7528 77.8472 69.7778C80.3545 69.7513 82.8606 69.8998 85.3472 70.2222L84.5972 64.7639C83.6389 58.0694 80.3333 54.6806 74.7917 54.6806C69.25 54.6806 65.9444 58.6111 65.9444 64.9306V71.1667ZM196.111 69.7778C200.121 69.7528 204.118 70.2193 208.014 71.1667V64.9861C208.014 58.6667 204.625 54.7361 199.167 54.7361C193.708 54.7361 190.319 58.125 189.361 64.8194L188.611 70.2778C191.098 69.9554 193.604 69.8069 196.111 69.8333V69.7778Z" fill="url(#paint0_linear)"/>
<path d="M300.278 221.819H276.181V53.1806H300.278V221.819ZM280.556 217.444H295.903V57.5556H280.556V217.444Z" fill="url(#paint1_linear)"/>
<path d="M456.611 224.639C446.153 224.639 443.764 215.097 442.986 211.958L441.181 203.958C425.528 201.181 415.972 191.083 412.014 173.181L389.333 74.6806C386.74 74.3557 384.128 74.198 381.514 74.2083C377.173 74.138 372.847 74.7233 368.681 75.9444V221.778H344.125V103.722C344.125 88.4444 351.069 77.8195 364.306 72.8472V64.9861C364.306 56.2361 369.611 50.3611 377.514 50.3611C384.333 50.3611 389.347 54.6944 390.931 61.9444L392.944 70.8333C408.222 73.6111 417.389 83.4167 421.653 101.597L444.778 200.111C447.381 200.436 450.002 200.593 452.625 200.583C456.948 200.617 461.257 200.089 465.444 199.014V53.1806H490V175C490 187.5 482.681 197.306 469.819 202.125V209.722C469.819 218.944 464.764 224.639 456.611 224.639ZM445.833 204.653L447.222 210.944C448.875 217.556 451.597 220.264 456.597 220.264C462.153 220.264 465.431 216.444 465.431 209.778V203.5C461.226 204.462 456.924 204.928 452.611 204.889C450.348 204.894 448.085 204.783 445.833 204.556V204.625V204.653ZM348.5 217.444H364.306V77.5417C353.806 82.0833 348.5 90.875 348.5 103.708V217.444ZM394.014 75.5L416.236 172.208C419.681 187.694 427.347 196.375 440.069 199.278L417.403 102.569C413.708 86.8611 406.444 78.375 394.014 75.5ZM469.819 57.5556V197.472C480.042 193.139 485.625 185.264 485.625 175.056V57.5556H469.819ZM368.681 71.3333C372.871 70.2529 377.186 69.7299 381.514 69.7778C383.777 69.7725 386.04 69.8837 388.292 70.1111V70.0417L386.653 62.8333C385.986 59.7778 383.875 54.6806 377.514 54.6806C371.153 54.6806 368.681 59.9722 368.681 64.9306V71.3333Z" fill="url(#paint2_linear)"/>
<path d="M658.611 221.819H632.917L620.25 171.597H549.028L536.597 221.819H510.903L544.042 99.8472C547.875 85.9167 556.639 76.3889 569.444 72.2222L571.736 62.6389C573.125 57.3611 575.903 50.4028 584.667 50.4028C593.431 50.4028 596.222 57.3472 597.583 62.5972L599.847 72.2222C612.625 76.3889 621.389 85.9583 625.236 99.875L658.611 221.819ZM636.319 217.444H652.875L621.014 101C617.861 89.5694 611.028 81.4583 601.139 77.3889L620.833 155.181H548.75L568.194 77.3194C558.292 81.4861 551.458 89.5556 548.306 100.931L516.667 217.444H533.222L545.653 167.222H623.611L636.319 217.444ZM554.375 150.778H615.181L596.236 75.6389C588.644 73.7083 580.689 73.7083 573.097 75.6389L554.375 150.778ZM574.306 70.7222V70.8889C581.146 69.486 588.201 69.486 595.042 70.8889V70.7083L593.347 63.5833C591.694 57.2083 589.264 54.7083 584.681 54.7083C580.097 54.7083 577.667 57.2083 576 63.625L574.306 70.7083V70.7222Z" fill="url(#paint3_linear)"/>
<defs>
<linearGradient id="paint0_linear" x1="136.979" y1="50.3194" x2="136.979" y2="224.658" gradientUnits="userSpaceOnUse">
<stop stop-color="#198FFD"/>
<stop offset="1" stop-color="#A225EF"/>
</linearGradient>
<linearGradient id="paint1_linear" x1="288.229" y1="53.1806" x2="288.229" y2="221.819" gradientUnits="userSpaceOnUse">
<stop stop-color="#198FFD"/>
<stop offset="1" stop-color="#A225EF"/>
</linearGradient>
<linearGradient id="paint2_linear" x1="417.062" y1="50.3611" x2="417.062" y2="224.639" gradientUnits="userSpaceOnUse">
<stop stop-color="#198FFD"/>
<stop offset="1" stop-color="#A225EF"/>
</linearGradient>
<linearGradient id="paint3_linear" x1="584.757" y1="50.4028" x2="584.757" y2="221.819" gradientUnits="userSpaceOnUse">
<stop stop-color="#198FFD"/>
<stop offset="1" stop-color="#A225EF"/>
</linearGradient>
</defs>
</svg>
