<svg width="506" height="556" viewBox="0 0 506 556" fill="none" xmlns="http://www.w3.org/2000/svg">
<g id="not_from_this_world 1" clip-path="url(#clip0)">
<path id="Vector" d="M351.362 112.8C316.286 107.198 276.342 104.209 234.743 104.209C196.672 104.209 159.994 106.709 127.167 111.422C127.175 110.918 127.182 110.413 127.205 109.909C128.075 80.6249 140.356 52.8432 161.423 32.5018C182.49 12.1604 210.672 0.872862 239.945 1.05184C269.217 1.23082 297.259 12.8621 318.076 33.4596C338.893 54.0571 350.834 81.9869 351.347 111.279C351.355 111.791 351.362 112.296 351.362 112.8Z" fill="#6C63FF"/>
<g id="Group" opacity="0.1">
<path id="Vector_2" opacity="0.1" d="M253.966 1.01C238.397 -1.09464 222.56 0.0982088 207.481 4.51123C192.402 8.92425 178.418 16.459 166.435 26.627C154.452 36.7951 144.737 49.3697 137.921 63.5357C131.104 77.7017 127.338 93.1431 126.866 108.859C126.843 109.364 126.836 109.868 126.828 110.373C136.581 108.972 146.68 107.772 157.048 106.77C158.316 80.5879 168.703 55.6763 186.406 36.3579C204.11 17.0394 228.012 4.53345 253.966 1.01V1.01Z" fill="white"/>
</g>
<path id="Vector_3" d="M400.402 121.701C384.256 117.32 367.879 113.841 351.347 111.279C324.25 107.077 296.933 104.45 269.533 103.41C258.119 102.944 246.495 102.703 234.743 102.703C225.429 102.703 216.189 102.853 207.078 103.154C180.35 103.945 153.686 106.2 127.205 109.909C107.602 112.61 88.1898 116.549 69.0835 121.701C24.535 134.027 3.05176e-05 150.547 3.05176e-05 168.212C3.05176e-05 185.877 24.5351 202.398 69.0835 214.724C100.413 223.399 139.04 229.31 181.128 232.02C198.501 233.15 216.46 233.722 234.743 233.722C253.086 233.722 271.106 233.142 288.531 232.013C326.834 229.536 362.272 224.408 391.93 216.953C392.088 216.908 392.239 216.87 392.397 216.833C394.398 216.336 396.369 215.816 398.318 215.297C399.018 215.101 399.71 214.913 400.402 214.724C400.441 214.708 400.481 214.696 400.522 214.687C401.185 214.506 401.839 214.318 402.494 214.137C403.803 213.761 405.097 213.392 406.369 213.008C406.429 212.992 406.481 212.977 406.534 212.962C407.64 212.631 408.724 212.3 409.799 211.968C410.68 211.69 411.553 211.419 412.418 211.14C413.05 210.937 413.674 210.734 414.291 210.53C414.743 210.38 415.187 210.237 415.623 210.086C416.217 209.89 416.812 209.687 417.399 209.484C417.647 209.401 417.895 209.318 418.136 209.228C418.7 209.039 419.249 208.844 419.799 208.648C420.393 208.437 420.987 208.219 421.574 208.008C422.063 207.835 422.552 207.654 423.034 207.473C423.44 207.315 423.839 207.164 424.245 207.014C425.351 206.6 426.435 206.17 427.503 205.749C428.037 205.53 428.571 205.32 429.098 205.101C429.617 204.89 430.144 204.672 430.656 204.454C431.498 204.1 432.326 203.746 433.138 203.392C433.53 203.211 433.929 203.038 434.312 202.872C434.606 202.737 434.891 202.609 435.185 202.473C435.395 202.383 435.606 202.285 435.809 202.187C436.569 201.841 437.322 201.487 438.059 201.133C440.888 199.778 443.529 198.392 445.981 196.977C461.368 188.159 469.486 178.378 469.486 168.212C469.486 150.547 444.951 134.027 400.402 121.701ZM399.996 213.279C368.629 221.961 329.897 227.871 287.695 230.56C270.534 231.651 252.793 232.216 234.743 232.216C216.753 232.216 199.072 231.659 181.963 230.567C139.695 227.887 100.902 221.976 69.4899 213.279C25.6486 201.14 1.50479 185.14 1.50479 168.212C1.50724 166.717 1.6943 165.227 2.06173 163.777C5.89858 148.507 29.5009 134.215 69.4899 123.146C88.4517 118.034 107.715 114.119 127.168 111.422C153.808 107.692 180.633 105.43 207.522 104.645C216.49 104.352 225.564 104.206 234.743 104.209C246.337 104.209 257.803 104.442 269.074 104.894C296.634 105.924 324.11 108.564 351.362 112.8C367.751 115.35 383.987 118.804 399.996 123.146C439.978 134.215 463.572 148.499 467.417 163.762C467.79 165.216 467.98 166.711 467.981 168.212C467.981 185.14 443.837 201.14 399.996 213.279V213.279Z" fill="#3F3D56"/>
<path id="Vector_4" d="M469.057 168.898C469.057 178.958 460.773 188.475 445.981 196.976C443.521 198.392 440.873 199.778 438.059 201.133C437.321 201.487 436.569 201.841 435.809 202.187C435.606 202.285 435.395 202.383 435.185 202.473C434.891 202.609 434.606 202.737 434.312 202.872C433.928 203.038 433.529 203.211 433.138 203.392C432.326 203.746 431.498 204.1 430.655 204.454C430.144 204.672 429.617 204.89 429.098 205.101C428.571 205.32 428.037 205.53 427.503 205.749C426.435 206.17 425.351 206.6 424.245 207.014C423.839 207.164 423.44 207.315 423.034 207.473C422.552 207.654 422.063 207.834 421.574 208.008C420.987 208.219 420.393 208.437 419.799 208.648C419.249 208.843 418.7 209.039 418.136 209.228C417.895 209.318 417.647 209.401 417.398 209.484C416.812 209.687 416.217 209.89 415.623 210.086C415.186 210.237 414.743 210.38 414.291 210.53C413.674 210.733 413.049 210.937 412.418 211.14C411.552 211.419 410.68 211.69 409.799 211.968C408.724 212.3 407.64 212.631 406.534 212.962C406.481 212.977 406.429 212.992 406.368 213.008C405.097 213.392 403.803 213.76 402.494 214.137C401.839 214.318 401.185 214.506 400.522 214.687C400.481 214.696 400.441 214.708 400.402 214.724C399.71 214.913 399.018 215.101 398.318 215.297C396.377 215.809 394.398 216.328 392.397 216.833C392.239 216.87 392.088 216.908 391.93 216.953C363.076 224.167 327.677 229.423 288.501 231.96C271.339 233.067 253.447 233.654 235.067 233.654C216.52 233.654 198.478 233.059 181.181 231.93C77.924 225.191 1.07602 199.529 1.07602 168.898C1.08415 167.034 1.36802 165.181 1.91841 163.401C1.96359 163.529 2.00878 163.649 2.06168 163.777C12.7978 191.999 88.9918 214.807 187.855 220.372C203 221.23 218.687 221.674 234.743 221.674C250.867 221.674 266.614 221.223 281.819 220.364C380.599 214.777 456.718 191.962 467.417 163.762C467.597 163.31 467.755 162.859 467.891 162.407C468.653 164.486 469.048 166.683 469.057 168.898V168.898Z" fill="#3F3D56"/>
<path id="Vector_5" d="M68.9703 160.793C56.4486 160.793 43.1405 158.096 43.1405 153.099C43.1405 148.102 56.4486 145.406 68.9703 145.406C81.4919 145.406 94.8 148.102 94.8 153.099C94.8 158.096 81.4919 160.793 68.9703 160.793ZM68.9703 146.912C54.6351 146.912 44.6453 150.173 44.6453 153.099C44.6453 156.026 54.6352 159.287 68.9703 159.287C83.3054 159.287 93.2953 156.026 93.2953 153.099C93.2953 150.173 83.3054 146.912 68.9703 146.912V146.912Z" fill="#3F3D56"/>
<path id="Vector_6" d="M122.389 196.183C109.868 196.183 96.5596 193.487 96.5596 188.49C96.5596 183.493 109.868 180.797 122.389 180.797C134.911 180.797 148.219 183.493 148.219 188.49C148.219 193.487 134.911 196.183 122.389 196.183ZM122.389 182.303C108.054 182.303 98.0643 185.563 98.0643 188.49C98.0643 191.416 108.054 194.677 122.389 194.677C136.724 194.677 146.714 191.416 146.714 188.49C146.714 185.563 136.724 182.303 122.389 182.303V182.303Z" fill="#3F3D56"/>
<path id="Vector_7" d="M400.018 160.793C387.496 160.793 374.188 158.096 374.188 153.099C374.188 148.102 387.496 145.406 400.018 145.406C412.54 145.406 425.848 148.102 425.848 153.099C425.848 158.096 412.54 160.793 400.018 160.793ZM400.018 146.912C385.683 146.912 375.693 150.173 375.693 153.099C375.693 156.026 385.683 159.287 400.018 159.287C414.353 159.287 424.343 156.026 424.343 153.099C424.343 150.173 414.353 146.912 400.018 146.912V146.912Z" fill="#3F3D56"/>
<path id="Vector_8" d="M346.599 196.183C334.077 196.183 320.769 193.487 320.769 188.49C320.769 183.493 334.077 180.797 346.599 180.797C359.121 180.797 372.429 183.493 372.429 188.49C372.429 193.487 359.121 196.183 346.599 196.183ZM346.599 182.303C332.264 182.303 322.274 185.563 322.274 188.49C322.274 191.416 332.264 194.677 346.599 194.677C360.934 194.677 370.924 191.416 370.924 188.49C370.924 185.563 360.934 182.303 346.599 182.303V182.303Z" fill="#3F3D56"/>
<path id="Vector_9" d="M234.494 212.749C221.972 212.749 208.664 210.052 208.664 205.055C208.664 200.058 221.972 197.362 234.494 197.362C247.016 197.362 260.324 200.058 260.324 205.055C260.324 210.052 247.016 212.749 234.494 212.749ZM234.494 198.868C220.159 198.868 210.169 202.129 210.169 205.055C210.169 207.982 220.159 211.243 234.494 211.243C248.829 211.243 258.819 207.982 258.819 205.055C258.819 202.129 248.829 198.868 234.494 198.868V198.868Z" fill="#3F3D56"/>
<g id="guyFlying">
<path id="Vector_10" d="M246.832 369.228C264.289 369.228 278.441 355.065 278.441 337.593C278.441 320.122 264.289 305.959 246.832 305.959C229.375 305.959 215.223 320.122 215.223 337.593C215.223 355.065 229.375 369.228 246.832 369.228Z" fill="#2F2E41"/>
<path id="Vector_11" d="M234.812 358.378L219.428 366.088L223.728 374.681L239.112 366.971L234.812 358.378Z" fill="#2F2E41"/>
<path id="Vector_12" d="M225.756 373.809C226.668 372.424 224.417 369.328 220.727 366.893C217.037 364.458 213.307 363.607 212.394 364.992C211.482 366.377 213.734 369.473 217.423 371.908C221.113 374.342 224.844 375.194 225.756 373.809Z" fill="#2F2E41"/>
<path id="Vector_13" d="M258.852 358.378L254.552 366.971L269.936 374.681L274.236 366.088L258.852 358.378Z" fill="#2F2E41"/>
<path id="Vector_14" d="M276.24 371.908C279.93 369.473 282.182 366.377 281.269 364.992C280.357 363.607 276.626 364.458 272.937 366.893C269.247 369.328 266.995 372.424 267.908 373.809C268.82 375.194 272.551 374.342 276.24 371.908Z" fill="#2F2E41"/>
<path id="Vector_15" d="M244.619 340.667C250.585 340.667 255.422 335.827 255.422 329.855C255.422 323.884 250.585 319.044 244.619 319.044C238.653 319.044 233.816 323.884 233.816 329.855C233.816 335.827 238.653 340.667 244.619 340.667Z" fill="white"/>
<path id="Vector_16" d="M247.247 327.783C248.647 326.381 248.639 324.101 247.229 322.689C245.819 321.278 243.54 321.27 242.14 322.671C240.739 324.073 240.747 326.353 242.157 327.765C243.568 329.176 245.846 329.184 247.247 327.783Z" fill="#3F3D56"/>
<path id="Vector_17" d="M271.767 303.178C272.243 291.467 262.157 281.547 249.24 281.022C236.324 280.497 225.467 289.565 224.992 301.277C224.517 312.988 233.495 315.649 246.412 316.174C259.329 316.7 271.292 314.89 271.767 303.178Z" fill="#6C63FF"/>
<path id="Vector_18" d="M289.988 354.158C292.067 352.372 289.143 345.551 283.458 338.922C277.772 332.294 271.477 328.369 269.398 330.155C267.319 331.942 270.243 338.763 275.928 345.391C281.614 352.02 287.909 355.945 289.988 354.158Z" fill="#2F2E41"/>
<path id="Vector_19" d="M217.824 345.391C223.51 338.763 226.433 331.942 224.354 330.155C222.275 328.369 215.98 332.294 210.295 338.922C204.609 345.551 201.685 352.372 203.765 354.158C205.844 355.945 212.138 352.02 217.824 345.391Z" fill="#2F2E41"/>
<path id="Vector_20" d="M255.513 350.06C255.856 351.941 255.437 353.881 254.35 355.453C253.263 357.025 251.597 358.1 249.718 358.443C247.838 358.785 245.9 358.366 244.33 357.278C242.759 356.191 241.684 354.523 241.342 352.642L241.34 352.628C240.631 348.711 243.657 347.325 247.571 346.616C251.485 345.907 254.805 346.143 255.513 350.06Z" fill="white"/>
</g>
<path id="Vector_21" d="M200.133 373.025C199.734 373.025 199.352 372.866 199.069 372.583C198.787 372.301 198.629 371.918 198.629 371.519V282.666C198.629 282.267 198.787 281.884 199.069 281.601C199.352 281.319 199.734 281.16 200.133 281.16C200.532 281.16 200.915 281.319 201.197 281.601C201.48 281.884 201.638 282.267 201.638 282.666V371.519C201.638 371.918 201.48 372.301 201.197 372.583C200.915 372.866 200.532 373.025 200.133 373.025Z" fill="#CCCCCC"/>
<path id="Vector_22" d="M177.562 452.841C177.163 452.841 176.78 452.682 176.498 452.4C176.216 452.117 176.057 451.734 176.057 451.335V386.578C176.057 386.179 176.216 385.796 176.498 385.513C176.78 385.231 177.163 385.072 177.562 385.072C177.961 385.072 178.344 385.231 178.626 385.513C178.908 385.796 179.067 386.179 179.067 386.578V451.335C179.067 451.734 178.908 452.117 178.626 452.4C178.344 452.682 177.961 452.841 177.562 452.841V452.841Z" fill="#CCCCCC"/>
<path id="Vector_23" d="M235.495 399.379C235.096 399.379 234.713 399.22 234.431 398.938C234.149 398.655 233.991 398.272 233.991 397.873V309.021C233.991 308.621 234.149 308.238 234.431 307.956C234.713 307.673 235.096 307.515 235.495 307.515C235.894 307.515 236.277 307.673 236.559 307.956C236.842 308.238 237 308.621 237 309.021V397.873C237 398.272 236.841 398.655 236.559 398.938C236.277 399.22 235.894 399.379 235.495 399.379Z" fill="#CCCCCC"/>
<path id="Vector_24" d="M213.676 463.383C213.277 463.383 212.894 463.224 212.612 462.942C212.33 462.659 212.171 462.276 212.171 461.877V425.734C212.171 425.334 212.33 424.951 212.612 424.669C212.894 424.386 213.277 424.228 213.676 424.228C214.075 424.228 214.458 424.386 214.74 424.669C215.022 424.951 215.181 425.334 215.181 425.734V461.877C215.181 462.276 215.022 462.659 214.74 462.942C214.458 463.224 214.075 463.383 213.676 463.383V463.383Z" fill="#CCCCCC"/>
<path id="Vector_25" d="M244.524 278.148C244.125 278.148 243.742 277.99 243.46 277.707C243.178 277.425 243.019 277.042 243.019 276.642V240.499C243.019 240.1 243.178 239.717 243.46 239.434C243.742 239.152 244.125 238.993 244.524 238.993C244.923 238.993 245.306 239.152 245.588 239.434C245.87 239.717 246.029 240.1 246.029 240.499V276.642C246.029 277.042 245.87 277.425 245.588 277.707C245.306 277.99 244.923 278.148 244.524 278.148V278.148Z" fill="#CCCCCC"/>
<path id="Vector_26" d="M169.286 293.961C168.887 293.961 168.504 293.802 168.222 293.52C167.94 293.237 167.781 292.854 167.781 292.455V256.312C167.781 255.912 167.94 255.529 168.222 255.247C168.504 254.964 168.887 254.806 169.286 254.806C169.685 254.806 170.068 254.964 170.35 255.247C170.632 255.529 170.791 255.912 170.791 256.312V292.455C170.791 292.854 170.632 293.237 170.35 293.52C170.068 293.802 169.685 293.961 169.286 293.961V293.961Z" fill="#CCCCCC"/>
<path id="Vector_27" d="M300.2 297.726C299.801 297.726 299.418 297.567 299.136 297.285C298.854 297.002 298.695 296.619 298.695 296.22V260.077C298.695 259.677 298.854 259.294 299.136 259.012C299.418 258.729 299.801 258.571 300.2 258.571C300.599 258.571 300.982 258.729 301.264 259.012C301.546 259.294 301.705 259.677 301.705 260.077V296.22C301.705 296.619 301.546 297.002 301.264 297.285C300.982 297.567 300.599 297.726 300.2 297.726Z" fill="#CCCCCC"/>
<path id="Vector_28" d="M297.191 410.674C296.791 410.674 296.409 410.515 296.127 410.233C295.844 409.95 295.686 409.567 295.686 409.168V365.495C295.686 365.095 295.844 364.712 296.126 364.43C296.409 364.147 296.791 363.989 297.191 363.989C297.59 363.989 297.972 364.147 298.255 364.43C298.537 364.712 298.695 365.095 298.695 365.495V409.168C298.695 409.567 298.537 409.95 298.255 410.233C297.972 410.515 297.59 410.674 297.191 410.674Z" fill="#CCCCCC"/>
<path id="Vector_29" d="M267.095 449.076C266.696 449.076 266.313 448.917 266.031 448.635C265.749 448.353 265.591 447.969 265.591 447.57V382.813C265.591 382.414 265.749 382.031 266.031 381.748C266.313 381.466 266.696 381.307 267.095 381.307C267.494 381.307 267.877 381.466 268.159 381.748C268.442 382.031 268.6 382.414 268.6 382.813V447.57C268.6 447.969 268.442 448.353 268.159 448.635C267.877 448.917 267.494 449.076 267.095 449.076Z" fill="#CCCCCC"/>
<path id="Vector_30" d="M273.114 338.387C272.715 338.387 272.333 338.228 272.05 337.946C271.768 337.664 271.61 337.281 271.61 336.881V248.029C271.61 247.629 271.768 247.246 272.05 246.964C272.332 246.682 272.715 246.523 273.114 246.523C273.513 246.523 273.896 246.682 274.178 246.964C274.461 247.246 274.619 247.629 274.619 248.029V336.881C274.619 337.281 274.461 337.664 274.178 337.946C273.896 338.228 273.513 338.387 273.114 338.387Z" fill="#CCCCCC"/>
<path id="Vector_31" d="M457.593 527.46C459.747 525.655 456.836 518.626 451.092 511.76C445.348 504.893 438.945 500.79 436.791 502.595C434.638 504.4 437.548 511.429 443.293 518.295C449.037 525.161 455.439 529.264 457.593 527.46Z" fill="#2F2E41"/>
<path id="Vector_32" d="M443.468 519.651C449.127 502.66 439.952 484.295 422.975 478.632C405.997 472.968 387.647 482.151 381.988 499.142C376.328 516.133 385.504 534.498 402.481 540.161C419.458 545.825 437.809 536.642 443.468 519.651Z" fill="#2F2E41"/>
<path id="Vector_33" d="M426.443 534.847H416.599V552.498H426.443V534.847Z" fill="#2F2E41"/>
<path id="Vector_34" d="M406.755 534.847H396.911V552.498H406.755V534.847Z" fill="#2F2E41"/>
<path id="Vector_35" d="M418.24 555.782C422.77 555.782 426.443 554.404 426.443 552.704C426.443 551.003 422.77 549.625 418.24 549.625C413.709 549.625 410.036 551.003 410.036 552.704C410.036 554.404 413.709 555.782 418.24 555.782Z" fill="#2F2E41"/>
<path id="Vector_36" d="M398.552 555.372C403.082 555.372 406.755 553.994 406.755 552.293C406.755 550.593 403.082 549.214 398.552 549.214C394.021 549.214 390.348 550.593 390.348 552.293C390.348 553.994 394.021 555.372 398.552 555.372Z" fill="#2F2E41"/>
<path id="Vector_37" d="M402.554 468.632C405.447 456.971 418.219 450.108 431.08 453.304C443.941 456.5 452.022 468.545 449.128 480.206C446.235 491.868 436.636 491.906 423.775 488.709C410.913 485.513 399.66 480.294 402.554 468.632Z" fill="#CCCCCC"/>
<path id="Vector_38" d="M390.87 501.298C392.074 498.758 386.495 493.588 378.411 489.75C370.326 485.913 362.796 484.861 361.593 487.401C360.389 489.941 365.967 495.111 374.052 498.948C382.136 502.786 389.666 503.838 390.87 501.298Z" fill="#2F2E41"/>
<path id="Vector_39" d="M407.884 513.366C413.85 513.366 418.687 508.525 418.687 502.554C418.687 496.583 413.85 491.742 407.884 491.742C401.917 491.742 397.08 496.583 397.08 502.554C397.08 508.525 401.917 513.366 407.884 513.366Z" fill="white"/>
<path id="Vector_40" d="M403.444 502.282C405.432 502.282 407.045 500.669 407.045 498.678C407.045 496.688 405.432 495.074 403.444 495.074C401.455 495.074 399.842 496.688 399.842 498.678C399.842 500.669 401.455 502.282 403.444 502.282Z" fill="#3F3D56"/>
<path id="Vector_41" d="M407.791 528.646C410.284 528.646 412.305 526.623 412.305 524.128C412.305 521.632 410.284 519.61 407.791 519.61C405.297 519.61 403.276 521.632 403.276 524.128C403.276 526.623 405.297 528.646 407.791 528.646Z" fill="white"/>
<path id="Vector_42" d="M505.248 556H327.686C327.486 556 327.295 555.921 327.154 555.779C327.013 555.638 326.933 555.447 326.933 555.247C326.933 555.047 327.013 554.856 327.154 554.715C327.295 554.573 327.486 554.494 327.686 554.494H505.248C505.447 554.494 505.639 554.573 505.78 554.715C505.921 554.856 506 555.047 506 555.247C506 555.447 505.921 555.638 505.78 555.779C505.639 555.921 505.447 556 505.248 556Z" fill="#3F3D56"/>
</g>
<defs>
<clipPath id="clip0">
<rect width="506" height="556" fill="white"/>
</clipPath>
</defs>
</svg>
