<svg width="961" height="378" viewBox="0 0 961 378" fill="none" xmlns="http://www.w3.org/2000/svg">
<g clip-path="url(#clip0)">
<path d="M188.043 308.777C183.616 308.906 179.307 307.333 175.999 304.383C172.692 301.434 170.637 297.329 170.253 292.912L168.252 277.2C149.184 271.759 138.03 257.632 135.131 235.2L117.97 102.824C114.289 102.23 110.563 101.962 106.835 102.022C101.317 101.977 95.8187 102.69 90.4942 104.141V304.9H56.821V143.526C56.821 121.628 66.6408 106.165 84.526 99.731V89.3263C84.526 77.2991 91.8289 69.2236 102.678 69.2236C113.528 69.2236 120.335 75.9818 122.089 88.3145L123.424 97.9555C143.006 103.435 154.446 119.184 157.84 144.748L173.705 272.351C183.183 274.183 192.923 274.183 202.402 272.351L218.265 144.766C221.583 119.184 233.156 103.435 252.683 97.8981L254.017 88.2572C255.772 75.9818 262.673 69.1663 273.428 69.1663C284.181 69.1663 291.58 77.2418 291.58 89.269V99.6737C309.465 106.107 319.284 121.571 319.284 143.468V304.844H285.574V104.122C280.248 102.671 274.751 101.957 269.232 102.003C265.505 101.943 261.778 102.211 258.097 102.805L240.936 235.2C238.096 257.231 226.674 271.702 207.816 277.2L205.929 292.931C205.635 297.399 203.591 301.57 200.241 304.537C196.892 307.504 192.509 309.028 188.043 308.777ZM174.486 278.728L176.221 292.263C176.404 295.23 177.747 298.007 179.96 299.99C182.173 301.974 185.076 303.005 188.043 302.858C189.519 302.964 191.001 302.772 192.402 302.296C193.802 301.817 195.093 301.063 196.196 300.077C197.302 299.09 198.197 297.893 198.83 296.553C199.464 295.214 199.822 293.762 199.884 292.282L201.619 278.728C192.635 280.204 183.47 280.204 174.486 278.728ZM291.58 298.983H313.278V143.526C313.278 124.969 305.804 112.159 291.58 106.184V298.983ZM62.77 298.983H84.526V106.184C70.3208 112.159 62.9226 124.969 62.9226 143.526L62.77 298.983ZM124.282 104.465L141.1 234.418C143.502 253.222 152.368 265.382 167.431 270.691L151.892 145.492C149.032 123.423 139.974 109.945 124.282 104.465ZM251.825 104.465C236.131 109.945 227.036 123.423 224.214 145.511L208.674 270.614C223.756 265.307 232.605 253.146 235.007 234.341L251.825 104.465ZM90.5322 97.8219C95.8809 96.5196 101.369 95.8784 106.873 95.9128C110.315 95.8763 113.756 96.0804 117.17 96.5236L116.14 89.0209C114.824 79.819 110.286 75.161 102.678 75.161C95.0704 75.161 90.5322 80.5636 90.5322 89.2501V97.8219ZM269.232 95.9128C274.738 95.8784 280.225 96.5196 285.574 97.8219V89.3263C285.574 80.64 280.921 75.2373 273.428 75.2373C265.933 75.2373 261.281 79.8955 259.966 89.0972L258.936 96.6C262.35 96.1569 265.791 95.9528 269.232 95.989V95.9128Z" fill="url(#paint0_linear)"/>
<path d="M412.239 304.9H379.157V73.0992H412.239V304.9ZM385.163 298.887H406.233V79.1128H385.163V298.887Z" fill="url(#paint1_linear)"/>
<path d="M626.862 308.777C612.504 308.777 609.225 295.661 608.156 291.346L605.678 280.35C584.189 276.532 571.07 262.652 565.636 238.045L534.499 102.652C530.939 102.205 527.353 101.989 523.764 102.003C517.805 101.906 511.866 102.711 506.146 104.389V304.844H472.434V142.571C472.434 121.571 481.968 106.966 500.14 100.132V89.3263C500.14 77.2991 507.423 69.2236 518.273 69.2236C527.634 69.2236 534.518 75.1799 536.692 85.1454L539.456 97.3636C560.43 101.182 573.015 114.66 578.869 139.65L610.617 275.062C614.19 275.508 617.788 275.724 621.389 275.71C627.324 275.757 633.24 275.031 638.988 273.554V73.0991H672.7V240.545C672.7 257.727 662.652 271.206 644.994 277.83V288.272C644.994 300.948 638.055 308.777 626.862 308.777ZM612.065 281.305L613.972 289.952C616.241 299.041 619.978 302.763 626.842 302.763C634.47 302.763 638.97 297.512 638.97 288.349V279.72C633.197 281.042 627.291 281.683 621.37 281.629C618.263 281.636 615.157 281.484 612.065 281.172V281.266V281.305ZM478.441 298.887H500.14V106.585C485.725 112.827 478.441 124.912 478.441 142.551V298.887ZM540.925 103.778L571.433 236.708C576.162 257.994 586.686 269.926 604.152 273.917L573.035 140.986C567.962 119.395 557.99 107.73 540.925 103.778ZM644.994 79.1128V271.434C659.029 265.478 666.694 254.654 666.694 240.622V79.1128H644.994ZM506.146 98.0509C511.899 96.5658 517.822 95.8469 523.764 95.9128C526.871 95.9055 529.978 96.0583 533.069 96.3709V96.2755L530.819 86.3672C529.904 82.1673 527.006 75.161 518.273 75.161C509.54 75.161 506.146 82.4345 506.146 89.2501V98.0509Z" fill="url(#paint2_linear)"/>
<path d="M904.179 304.9H868.905L851.515 235.868H753.737L736.671 304.9H701.397L746.892 137.245C752.154 118.096 764.186 105 781.765 99.2727L784.912 86.1C786.819 78.8454 790.633 69.2809 802.664 69.2809C814.696 69.2809 818.528 78.8263 820.396 86.0427L823.504 99.2727C841.047 105 853.078 118.154 858.36 137.283L904.179 304.9ZM873.575 298.887H896.304L852.564 138.829C848.235 123.117 838.854 111.968 825.278 106.375L852.315 213.303H753.355L780.049 106.279C766.455 112.006 757.073 123.098 752.746 138.734L709.31 298.887H732.038L749.104 229.854H856.129L873.575 298.887ZM761.078 207.251H844.556L818.547 103.969C808.124 101.315 797.203 101.315 786.78 103.969L761.078 207.251ZM788.44 97.2109V97.44C797.83 95.5117 807.516 95.5117 816.908 97.44V97.1918L814.581 87.3981C812.311 78.6354 808.975 75.1991 802.684 75.1991C796.39 75.1991 793.054 78.6354 790.766 87.4555L788.44 97.1918V97.2109Z" fill="url(#paint3_linear)"/>
<path d="M138.631 300.239L151.016 338.355L138.177 342.527L106.541 245.163L142.451 233.495C153.106 230.033 162.326 230.044 170.112 233.527C177.942 236.996 183.313 243.211 186.224 252.172C189.295 261.623 188.699 269.875 184.435 276.928C180.202 283.922 172.58 289.208 161.568 292.786L138.631 300.239ZM135.22 289.74L158.291 282.244C165.156 280.013 169.895 276.699 172.508 272.302C175.106 267.859 175.413 262.585 173.429 256.477C171.545 250.681 168.211 246.639 163.426 244.349C158.64 242.06 153.038 241.884 146.62 243.822L122.814 251.557L135.22 289.74ZM236.076 310.718L223.705 314.737L190.331 212.023L202.703 208.004L236.076 310.718ZM300.607 289.75C299.43 288.556 298.025 286.203 296.391 282.692C292.582 290.535 286.687 295.752 278.707 298.345C271.574 300.663 265.06 300.561 259.164 298.041C253.299 295.462 249.359 291.074 247.346 284.877C244.898 277.343 245.853 270.576 250.213 264.575C254.602 258.516 261.99 253.799 272.378 250.424L284.414 246.513L282.568 240.829C281.162 236.505 278.754 233.492 275.343 231.791C271.917 230.046 267.685 229.991 262.648 231.628C258.234 233.062 254.896 235.379 252.634 238.578C250.371 241.778 249.754 244.96 250.782 248.126L238.344 252.167C237.171 248.556 237.312 244.666 238.766 240.497C240.251 236.268 242.859 232.464 246.591 229.082C250.367 225.687 254.885 223.134 260.146 221.425C268.483 218.717 275.694 218.69 281.782 221.345C287.854 223.955 292.168 228.887 294.721 236.141L305.542 269.443C307.7 276.085 310.264 281.093 313.232 284.465L313.58 285.535L300.607 289.75ZM277.014 286.992C280.893 285.732 284.245 283.534 287.07 280.398C289.895 277.262 291.567 273.835 292.084 270.119L287.261 255.273L277.564 258.424C262.407 263.349 256.27 270.247 259.152 279.119C260.412 282.997 262.69 285.609 265.986 286.953C269.281 288.297 272.957 288.31 277.014 286.992ZM356.607 261.87C361.021 260.436 364.443 257.846 366.872 254.099C369.302 250.352 370.044 246.415 369.097 242.286L380.799 238.484C381.923 242.703 381.779 247.111 380.365 251.711C378.952 256.31 376.4 260.441 372.711 264.105C369.066 267.753 364.792 270.374 359.888 271.967C350.036 275.169 341.125 274.441 333.156 269.786C325.216 265.071 319.393 257.007 315.684 245.594L315.011 243.521C312.722 236.477 311.98 229.794 312.784 223.47C313.588 217.147 315.905 211.687 319.734 207.091C323.609 202.481 328.845 199.104 335.443 196.96C343.557 194.323 351.078 194.566 358.006 197.687C364.979 200.794 369.905 206.167 372.782 213.809L361.079 217.611C359.202 213.046 356.173 209.791 351.992 207.847C347.842 205.844 343.426 205.603 338.745 207.124C332.46 209.167 328.317 213.026 326.317 218.703C324.347 224.321 324.753 231.41 327.534 239.97L328.295 242.31C331.003 250.647 334.805 256.509 339.701 259.896C344.597 263.283 350.232 263.941 356.607 261.87ZM432.577 248.349C422.769 251.536 413.747 250.919 405.509 246.499C397.256 242.033 391.377 234.406 387.872 223.618L387.133 221.344C384.801 214.167 384.082 207.328 384.976 200.827C385.901 194.267 388.301 188.608 392.176 183.849C396.081 179.031 400.91 175.688 406.661 173.82C416.067 170.763 424.385 171.486 431.615 175.988C438.844 180.49 444.334 188.514 448.086 200.061L449.759 205.21L400.743 221.136C403.239 228.211 407.187 233.311 412.589 236.435C418.021 239.5 423.813 240.034 429.965 238.035C434.334 236.615 437.744 234.521 440.197 231.753C442.649 228.985 444.533 225.76 445.851 222.079L455.32 225.508C452.284 236.796 444.703 244.409 432.577 248.349ZM409.963 183.984C404.97 185.606 401.373 188.796 399.173 193.552C396.958 198.264 396.514 204.027 397.841 210.841L434.085 199.065L433.781 198.129C431.382 191.959 428.109 187.65 423.962 185.202C419.801 182.71 415.135 182.304 409.963 183.984ZM466.448 165.557C469.744 157.044 475.783 151.36 484.566 148.507C499.857 143.538 510.372 149.659 516.112 166.868L531.647 214.681L519.276 218.701L503.719 170.821C501.979 165.62 499.523 162.154 496.349 160.426C493.219 158.682 489.18 158.615 484.232 160.222C480.22 161.526 477.045 163.74 474.709 166.865C472.373 169.99 470.923 173.566 470.359 177.594L487.111 229.152L474.74 233.171L441.366 130.457L453.737 126.438L466.448 165.557ZM534.922 172.881C532.618 165.793 531.929 158.969 532.853 152.409C533.822 145.835 536.281 140.205 540.23 135.522C544.224 130.823 549.408 127.438 555.783 125.367C565.636 122.166 574.701 122.99 582.981 127.841C591.304 132.678 597.306 140.758 600.985 152.081L601.268 152.95C603.556 159.994 604.254 166.767 603.359 173.267C602.495 179.709 600.051 185.309 596.027 190.066C592.048 194.809 586.804 198.238 580.296 200.353C570.488 203.54 561.422 202.715 553.098 197.878C544.819 193.027 538.854 184.985 535.204 173.75L534.922 172.881ZM547.838 170.311C550.445 178.336 554.388 184.176 559.667 187.833C564.991 191.476 570.773 192.283 577.015 190.255C583.301 188.213 587.497 184.139 589.604 178.032C591.696 171.882 591.301 164.371 588.418 155.499C585.84 147.564 581.86 141.76 576.477 138.087C571.124 134.355 565.327 133.503 559.086 135.531C552.978 137.516 548.842 141.546 546.676 147.622C544.51 153.698 544.897 161.261 547.838 170.311ZM641.717 178.917L629.346 182.937L595.972 80.2227L608.343 76.2031L641.717 178.917ZM646.618 136.663C643.011 125.562 642.745 115.791 645.818 107.35C648.877 98.8648 654.663 93.2387 663.178 90.472C671.649 87.7199 679.3 88.4376 686.131 92.6252L673.877 54.9099L686.248 50.8903L719.622 153.604L708.254 157.298L705.131 149.737C702.153 157.407 696.25 162.677 687.423 165.545C679.042 168.268 671.084 167.059 663.548 161.917C656.056 156.761 650.515 148.655 646.922 137.599L646.618 136.663ZM659.446 134.047C662.111 142.25 665.891 148.119 670.785 151.655C675.68 155.19 681.114 155.988 687.088 154.047C694.934 151.497 699.519 146.114 700.841 137.897L690.042 104.662C684.126 99.0435 677.334 97.4799 669.666 99.9713C663.603 101.941 659.638 105.817 657.77 111.599C655.903 117.381 656.462 124.864 659.446 134.047ZM769.34 138.928C759.533 142.115 750.51 141.498 742.272 137.078C734.019 132.612 728.14 124.985 724.635 114.197L723.896 111.923C721.564 104.746 720.845 97.9066 721.739 91.4058C722.664 84.8459 725.064 79.1867 728.939 74.4281C732.845 69.6104 737.673 66.2673 743.424 64.3987C752.83 61.3424 761.148 62.0652 768.378 66.5671C775.607 71.0691 781.098 79.0933 784.849 90.6397L786.522 95.7888L737.506 111.715C740.002 118.79 743.951 123.89 749.352 127.014C754.784 130.079 760.576 130.613 766.728 128.614C771.097 127.194 774.508 125.1 776.96 122.332C779.412 119.564 781.297 116.339 782.614 112.658L792.083 116.087C789.047 127.375 781.466 134.988 769.34 138.928ZM746.726 74.5631C741.733 76.1855 738.137 79.3749 735.936 84.1314C733.721 88.8433 733.277 94.6063 734.604 101.42L770.849 89.644L770.544 88.7078C768.145 82.5378 764.872 78.2289 760.725 75.7812C756.564 73.2889 751.898 72.8829 746.726 74.5631ZM826.574 51.1328C824.6 51.4291 822.521 51.9322 820.336 52.642C812.223 55.2783 807.84 60.5222 807.187 68.3737L823.874 119.731L811.503 123.75L787.993 51.3958L800.03 47.4848L802.947 55.7786C804.903 47.9962 809.604 42.8955 817.049 40.4765C819.456 39.6943 821.386 39.4124 822.837 39.631L826.574 51.1328Z" fill="#8C8C8C"/>
</g>
<defs>
<linearGradient id="paint0_linear" x1="188.053" y1="69.1663" x2="188.053" y2="308.803" gradientUnits="userSpaceOnUse">
<stop stop-color="#198FFD"/>
<stop offset="1" stop-color="#A225EF"/>
</linearGradient>
<linearGradient id="paint1_linear" x1="395.697" y1="73.0992" x2="395.697" y2="304.9" gradientUnits="userSpaceOnUse">
<stop stop-color="#198FFD"/>
<stop offset="1" stop-color="#A225EF"/>
</linearGradient>
<linearGradient id="paint2_linear" x1="572.567" y1="69.2236" x2="572.567" y2="308.777" gradientUnits="userSpaceOnUse">
<stop stop-color="#198FFD"/>
<stop offset="1" stop-color="#A225EF"/>
</linearGradient>
<linearGradient id="paint3_linear" x1="802.788" y1="69.2809" x2="802.788" y2="304.9" gradientUnits="userSpaceOnUse">
<stop stop-color="#198FFD"/>
<stop offset="1" stop-color="#A225EF"/>
</linearGradient>
<clipPath id="clip0">
<rect width="961" height="378" fill="white"/>
</clipPath>
</defs>
</svg>
